{
    "asset" : {
        "generator" : "Khronos glTF Blender I/O v1.0.5",
        "version" : "2.0"
    },
    "scene" : 0,
    "scenes" : [
        {
            "name" : "Scene",
            "nodes" : [
                0,
                1,
                2,
                3,
                4,
                5
            ]
        }
    ],
    "nodes" : [
        {
            "name" : "Light",
            "rotation" : [
                0.16907575726509094,
                0.7558803558349609,
                -0.27217137813568115,
                0.570947527885437
            ],
            "translation" : [
                4.076245307922363,
                5.903861999511719,
                -1.0054539442062378
            ]
        },
        {
            "name" : "Camera",
            "rotation" : [
                0.483536034822464,
                0.33687159419059753,
                -0.20870360732078552,
                0.7804827094078064
            ],
            "translation" : [
                7.358891487121582,
                4.958309173583984,
                6.925790786743164
            ]
        },
        {
            "mesh" : 0,
            "name" : "BezierCircle",
            "scale" : [
                0.6023736000061035,
                1.7297755479812622,
                0.5065523982048035
            ],
            "translation" : [
                0.18030470609664917,
                -0.9956044554710388,
                -0.024072425439953804
            ]
        },
        {
            "mesh" : 1,
            "name" : "BezierCircle.001",
            "scale" : [
                0.6023736000061035,
                1.7297755479812622,
                0.5065523982048035
            ],
            "translation" : [
                -1.6082606315612793,
                -0.9956044554710388,
                -0.024072425439953804
            ]
        },
        {
            "mesh" : 2,
            "name" : "Text",
            "rotation" : [
                0.710182249546051,
                0,
                0,
                0.7040178775787354
            ],
            "translation" : [
                0,
                2.5938313007354736,
                0
            ]
        },
        {
            "mesh" : 3,
            "name" : "Text.001",
            "rotation" : [
                -0.0060201543383300304,
                -0.7039925456047058,
                0.7101567387580872,
                -0.005967899225652218
            ],
            "translation" : [
                -2.342561721801758,
                1.5251538753509521,
                -0.1996331810951233
            ]
        }
    ],
    "materials" : [
        {
            "doubleSided" : true,
            "name" : "Material.001",
            "pbrMetallicRoughness" : {
                "baseColorFactor" : [
                    0.799102783203125,
                    0.23839758336544037,
                    0.215860515832901,
                    1
                ],
                "metallicFactor" : 0,
                "roughnessFactor" : 0.5
            }
        },
        {
            "doubleSided" : true,
            "name" : "Material.002",
            "pbrMetallicRoughness" : {
                "baseColorFactor" : [
                    0.799102783203125,
                    0.23839758336544037,
                    0.215860515832901,
                    1
                ],
                "metallicFactor" : 0,
                "roughnessFactor" : 0.5
            }
        }
    ],
    "meshes" : [
        {
            "name" : "BezierCircle",
            "primitives" : [
                {
                    "attributes" : {
                        "POSITION" : 0,
                        "NORMAL" : 1
                    },
                    "indices" : 2,
                    "material" : 0
                }
            ]
        },
        {
            "name" : "BezierCircle.001",
            "primitives" : [
                {
                    "attributes" : {
                        "POSITION" : 3,
                        "NORMAL" : 4
                    },
                    "indices" : 2,
                    "material" : 1
                }
            ]
        },
        {
            "name" : "Text",
            "primitives" : [
                {
                    "attributes" : {
                        "POSITION" : 5,
                        "NORMAL" : 6
                    },
                    "indices" : 7,
                    "material" : 1
                }
            ]
        },
        {
            "name" : "Text.001",
            "primitives" : [
                {
                    "attributes" : {
                        "POSITION" : 8,
                        "NORMAL" : 9
                    },
                    "indices" : 10,
                    "material" : 1
                }
            ]
        }
    ],
    "accessors" : [
        {
            "bufferView" : 0,
            "componentType" : 5126,
            "count" : 4896,
            "max" : [
                1.2747348546981812,
                1.9232063293457031,
                1.2718647718429565
            ],
            "min" : [
                -1.2747348546981812,
                -0.07679369300603867,
                -1.2725740671157837
            ],
            "type" : "VEC3"
        },
        {
            "bufferView" : 1,
            "componentType" : 5126,
            "count" : 4896,
            "type" : "VEC3"
        },
        {
            "bufferView" : 2,
            "componentType" : 5123,
            "count" : 28800,
            "type" : "SCALAR"
        },
        {
            "bufferView" : 3,
            "componentType" : 5126,
            "count" : 4896,
            "max" : [
                1.2747348546981812,
                1.9232063293457031,
                1.2718647718429565
            ],
            "min" : [
                -1.2747348546981812,
                -0.07679369300603867,
                -1.2725740671157837
            ],
            "type" : "VEC3"
        },
        {
            "bufferView" : 4,
            "componentType" : 5126,
            "count" : 4896,
            "type" : "VEC3"
        },
        {
            "bufferView" : 5,
            "componentType" : 5126,
            "count" : 11668,
            "max" : [
                5.804635524749756,
                0.04999999701976776,
                0.19205297529697418
            ],
            "min" : [
                0.044885944575071335,
                -0.04999999701976776,
                -0.5651214122772217
            ],
            "type" : "VEC3"
        },
        {
            "bufferView" : 6,
            "componentType" : 5126,
            "count" : 11668,
            "type" : "VEC3"
        },
        {
            "bufferView" : 7,
            "componentType" : 5123,
            "count" : 29868,
            "type" : "SCALAR"
        },
        {
            "bufferView" : 8,
            "componentType" : 5126,
            "count" : 6638,
            "max" : [
                2.9021339416503906,
                0.04999999701976776,
                0.007358351722359657
            ],
            "min" : [
                0.044885944575071335,
                -0.04999999701976776,
                -0.5430463552474976
            ],
            "type" : "VEC3"
        },
        {
            "bufferView" : 9,
            "componentType" : 5126,
            "count" : 6638,
            "type" : "VEC3"
        },
        {
            "bufferView" : 10,
            "componentType" : 5123,
            "count" : 16800,
            "type" : "SCALAR"
        }
    ],
    "bufferViews" : [
        {
            "buffer" : 0,
            "byteLength" : 58752,
            "byteOffset" : 0
        },
        {
            "buffer" : 0,
            "byteLength" : 58752,
            "byteOffset" : 58752
        },
        {
            "buffer" : 0,
            "byteLength" : 57600,
            "byteOffset" : 117504
        },
        {
            "buffer" : 0,
            "byteLength" : 58752,
            "byteOffset" : 175104
        },
        {
            "buffer" : 0,
            "byteLength" : 58752,
            "byteOffset" : 233856
        },
        {
            "buffer" : 0,
            "byteLength" : 140016,
            "byteOffset" : 292608
        },
        {
            "buffer" : 0,
            "byteLength" : 140016,
            "byteOffset" : 432624
        },
        {
            "buffer" : 0,
            "byteLength" : 59736,
            "byteOffset" : 572640
        },
        {
            "buffer" : 0,
            "byteLength" : 79656,
            "byteOffset" : 632376
        },
        {
            "buffer" : 0,
            "byteLength" : 79656,
            "byteOffset" : 712032
        },
        {
            "buffer" : 0,
            "byteLength" : 33600,
            "byteOffset" : 791688
        }
    ],
    "buffers" : [
        {
            "byteLength" : 825288,
            "uri" : "data:application/octet-stream;base64,"
        }
    ]
}
